<?xml version="1.0" encoding="utf-8"?>
<!-- Generator: Adobe Illustrator 17.1.0, SVG Export Plug-In . SVG Version: 6.00 Build 0)  -->
<!DOCTYPE svg PUBLIC "-//W3C//DTD SVG 1.1//EN" "http://www.w3.org/Graphics/SVG/1.1/DTD/svg11.dtd">
<svg version="1.1" id="Capa_1" xmlns="http://www.w3.org/2000/svg" xmlns:xlink="http://www.w3.org/1999/xlink" x="0px" y="0px"
	 viewBox="0 0 1000 1000" enable-background="new 0 0 1000 1000" xml:space="preserve">
<g>
	<g>
		<path fill="#06D444" d="M987.8,928.9L703.4,644.5c55.1-68,88.2-154.5,88.2-248.7C791.7,177.6,614.1,0,395.8,0S0,177.6,0,395.8
			s177.6,395.8,395.8,395.8c94.2,0,180.6-33.2,248.7-88.2l284.4,284.4c8.1,8.1,18.8,12.2,29.5,12.2c10.7,0,21.3-4.1,29.5-12.2
			C1004.1,971.5,1004.1,945.2,987.8,928.9z M395.8,708.3c-172.3,0-312.5-140.2-312.5-312.5S223.5,83.3,395.8,83.3
			s312.5,140.2,312.5,312.5S568.2,708.3,395.8,708.3z"/>
	</g>
</g>
</svg>
